# xmcd CD database file
#
# Track frame offsets:
#	150
#	15280
#	30912
#	47158
#	63375
#	78559
#	97565
#	115648
#	130597
#	149352
#	164186
#
# Disc length: 2367 seconds
#
# Revision: 0
# Processed by: cddbd v1.4PL0 Copyright (c) Steve Scherf et al.
# Submitted via: CDex 1.40Release
#
DISCID=7f093d0b
DTITLE=Abbie Welch - Bridges Burn Slower
DYEAR=2001
DGENRE=Country
TTITLE0=Heart to Heart Talk
TTITLE1=Bridges Burn Slower
TTITLE2=Just Don't Have The Heart with Mark Winston Kirk
TTITLE3=Somebody Should Leave
TTITLE4=Walk Me To The Door
TTITLE5=Someday Soon
TTITLE6=Somebody's Already Sleeping Here
TTITLE7=I'll Fly Away
TTITLE8=Maybe I Should Have Been Listening
TTITLE9=San Antonio Rose with Bubba Cox
TTITLE10=Walk Through This World With Me
EXTD=YEAR: 2001 ID3G: 2
EXTT0=
EXTT1=
EXTT2=
EXTT3=
EXTT4=
EXTT5=
EXTT6=
EXTT7=
EXTT8=
EXTT9=
EXTT10=
PLAYORDER=
